HIERARCHY
ROOT Hips
{
	OFFSET -0.001795 -0.223333 0.028219
	CHANNELS 6 Xposition Yposition Zposition Zrotation Yrotation Xrotation 
	JOINT LeftUpLeg
	{
		OFFSET 0.069520 -0.091406 -0.006815
		CHANNELS 3 Zrotation Yrotation Xrotation
		JOINT LeftLeg
		{
			OFFSET 0.034277 -0.375199 -0.004496
			CHANNELS 3 Zrotation Yrotation Xrotation
			JOINT LeftFoot
			{
				OFFSET -0.013596 -0.397961 -0.043693
				CHANNELS 3 Zrotation Yrotation Xrotation
				JOINT LeftToe
				{
					OFFSET 0.026358 -0.055791 0.119288
					CHANNELS 3 Zrotation Yrotation Xrotation
					End Site
					{
						OFFSET 0.000000 0.000000 0.000000
					}
				}
			}
		}
	}
	JOINT RightUpLeg
	{
		OFFSET -0.067670 -0.090522 -0.004320
		CHANNELS 3 Zrotation Yrotation Xrotation
		JOINT RightLeg
		{
			OFFSET -0.038290 -0.382569 -0.008850
			CHANNELS 3 Zrotation Yrotation Xrotation
			JOINT RightFoot
			{
				OFFSET 0.015774 -0.398415 -0.042312
				CHANNELS 3 Zrotation Yrotation Xrotation
				JOINT RightToe
				{
					OFFSET -0.025372 -0.048144 0.123348
					CHANNELS 3 Zrotation Yrotation Xrotation
					End Site
					{
						OFFSET 0.000000 0.000000 0.000000
					}
				}
			}
		}
	}
	JOINT Spine
	{
		OFFSET -0.002533 0.108963 -0.026696
		CHANNELS 3 Zrotation Yrotation Xrotation
		JOINT Spine1
		{
			OFFSET 0.005487 0.135180 0.001092
			CHANNELS 3 Zrotation Yrotation Xrotation
			JOINT Spine2
			{
				OFFSET 0.001457 0.052922 0.025425
				CHANNELS 3 Zrotation Yrotation Xrotation
				JOINT Neck
				{
					OFFSET -0.002778 0.213870 -0.042857
					CHANNELS 3 Zrotation Yrotation Xrotation
					JOINT Head
					{
						OFFSET 0.005152 0.064970 0.051349
						CHANNELS 3 Zrotation Yrotation Xrotation
						End Site
						{
							OFFSET 0.000000 0.000000 0.000000
						}
					}
				}
				JOINT LeftShoulder
				{
					OFFSET 0.078845 0.121749 -0.034090
					CHANNELS 3 Zrotation Yrotation Xrotation
					JOINT LeftArm
					{
						OFFSET 0.090977 0.030469 -0.008868
						CHANNELS 3 Zrotation Yrotation Xrotation
						JOINT LeftForeArm
						{
							OFFSET 0.259612 -0.012772 -0.027456
							CHANNELS 3 Zrotation Yrotation Xrotation
							JOINT LeftHand
							{
								OFFSET 0.249234 0.008986 -0.001171
								CHANNELS 3 Zrotation Yrotation Xrotation
								End Site
								{
									OFFSET 0.000000 0.000000 0.000000
								}
							}
						}
					}
				}
				JOINT RightShoulder
				{
					OFFSET -0.081759 0.118833 -0.038615
					CHANNELS 3 Zrotation Yrotation Xrotation
					JOINT RightArm
					{
						OFFSET -0.096012 0.032551 -0.009143
						CHANNELS 3 Zrotation Yrotation Xrotation
						JOINT RightForeArm
						{
							OFFSET -0.253742 -0.013329 -0.021401
							CHANNELS 3 Zrotation Yrotation Xrotation
							JOINT RightHand
							{
								OFFSET -0.255298 0.007772 -0.005559
								CHANNELS 3 Zrotation Yrotation Xrotation
								End Site
								{
									OFFSET 0.000000 0.000000 0.000000
								}
							}
						}
					}
				}
			}
		}
	}
}
MOTION
Frames: 7
Frame Time: 0.050000
0.000000 0.945488 0.000000 -1.536046 0.241105 5.139268 4.852904 -0.366918 -5.014403 5.643819 -0.356119 -2.972136 0.461849 5.752090 13.183543 0.000000 0.000000 0.000000 -2.143462 0.625228 -6.715716 -1.287761 0.210849 1.501682 0.113176 -4.281114 10.715789 0.000000 0.000000 0.000000 1.490161 0.130846 -3.149803 -0.359852 0.290811 -5.077886 0.148409 0.047982 5.917501 0.795382 0.352941 -11.972903 0.000000 0.000000 0.000000 -17.337378 2.142922 -2.766318 -57.794348 -4.006447 -5.067801 -8.498057 -19.214110 2.166626 0.000000 0.000000 0.000000 14.159152 -1.609955 -2.028540 60.640157 2.832146 -4.550885 9.089659 21.905892 2.340009 0.000000 0.000000 0.000000 
0.000015 0.944063 0.001259 -1.760181 -0.294538 5.612521 4.912442 -0.334157 -4.325319 5.954121 -0.233042 -4.717243 0.734545 6.136288 13.272268 0.000000 0.000000 0.000000 -2.623291 0.648606 -7.087113 -0.084951 0.058949 1.239235 0.314328 -3.849041 10.436100 0.000000 0.000000 0.000000 1.813093 0.155496 -3.608124 -1.093648 0.583221 -4.574013 0.563694 0.576859 4.786520 0.124884 0.859571 -12.726685 0.000000 0.000000 0.000000 -18.318749 2.881051 -3.344691 -57.238930 -3.425734 -5.176098 -7.624017 -18.139405 1.886983 0.000000 0.000000 0.000000 14.359906 -2.211271 -2.350149 60.961099 1.421746 -5.170054 9.600816 22.653470 2.514486 0.000000 0.000000 0.000000 
0.000061 0.943777 0.002246 -1.536440 0.456062 5.327367 4.847963 -0.347799 -4.521938 5.698538 -0.269770 -4.025489 0.410388 5.603423 12.875214 0.000000 0.000000 0.000000 -2.653618 0.633134 -6.971910 -0.364905 0.120157 1.924978 -0.104937 -4.474676 10.103486 0.000000 0.000000 0.000000 1.610212 0.150940 -3.548028 -1.050858 0.589986 -5.511652 0.124331 0.067988 5.047606 -0.177486 1.015029 -12.157832 0.000000 0.000000 0.000000 -18.108040 2.435642 -3.072931 -56.947740 -3.339974 -5.224496 -6.581358 -15.640954 1.476599 0.000000 0.000000 0.000000 15.953280 -1.664766 -2.254578 59.918535 0.942256 -5.358785 7.380844 21.467075 1.987519 0.000000 0.000000 0.000000 
0.000072 0.943260 0.003192 -1.700175 0.647833 5.653706 5.247305 -0.358104 -4.724313 5.348734 -0.223590 -4.263495 0.366938 5.508965 12.722194 0.000000 0.000000 0.000000 -2.614334 0.690204 -7.678040 -0.096639 0.118484 2.706027 -0.262798 -4.695415 9.894390 0.000000 0.000000 0.000000 1.384258 0.188587 -4.316899 -1.422957 0.742110 -5.176470 1.121923 -0.930351 4.213647 -0.857414 1.317279 -11.347135 0.000000 0.000000 0.000000 -18.037168 3.218502 -3.250086 -58.288366 -2.917520 -5.478623 -4.780993 -14.561743 1.167977 0.000000 0.000000 0.000000 14.707472 -1.305827 -2.164384 60.460667 0.384530 -5.630855 7.739961 21.535928 1.997290 0.000000 0.000000 0.000000 
0.000102 0.943580 0.003935 -1.654462 1.242158 5.399021 4.919485 -0.345886 -4.328247 5.891371 -0.224952 -4.643961 0.012713 5.055433 12.841462 0.000000 0.000000 0.000000 -2.443101 0.656747 -7.240651 -0.398263 0.155305 2.670105 -0.510112 -5.142856 9.963958 0.000000 0.000000 0.000000 1.084496 0.186831 -4.363430 -0.854576 0.513167 -5.158621 0.783875 -1.316503 3.822847 -1.280319 1.604664 -11.540391 0.000000 0.000000 0.000000 -18.014151 3.642043 -3.484809 -58.115433 -2.898323 -5.435208 -4.367624 -13.416394 1.021731 0.000000 0.000000 0.000000 14.261600 -1.476161 -2.196342 60.960959 -0.094013 -5.896556 7.525824 21.407472 1.943865 0.000000 0.000000 0.000000 
0.000242 0.943905 0.004352 -1.718553 1.462718 5.287791 4.911997 -0.341886 -4.224662 6.031816 -0.231383 -4.660906 -0.112633 4.895226 12.877636 0.000000 0.000000 0.000000 -2.539990 0.640372 -7.084720 -0.079518 0.114856 2.703753 -0.572431 -5.281676 10.097144 0.000000 0.000000 0.000000 0.887470 0.188886 -4.457389 -0.889340 0.534464 -5.351947 1.145545 -1.674683 3.681154 -1.502738 1.701338 -10.999779 0.000000 0.000000 0.000000 -18.298971 3.802288 -3.543597 -58.387842 -2.622742 -5.589299 -3.879340 -13.498719 0.977827 0.000000 0.000000 0.000000 13.700821 -1.527078 -2.204620 61.260225 -0.562344 -6.180489 8.032096 22.470329 2.127674 0.000000 0.000000 0.000000 
0.000415 0.943964 0.004345 -1.620814 1.668064 5.148927 4.653065 -0.324544 -3.840915 6.295993 -0.203689 -5.162143 -0.272706 4.717183 13.032421 0.000000 0.000000 0.000000 -2.457732 0.598772 -6.543804 -0.405599 0.130951 2.073813 -0.633427 -5.402459 10.176356 0.000000 0.000000 0.000000 0.664104 0.196541 -4.705577 -0.809252 0.500609 -5.161031 1.038610 -2.065586 3.299960 -1.878695 1.913436 -10.636982 0.000000 0.000000 0.000000 -17.774122 4.327343 -3.702769 -58.346181 -2.240610 -5.729843 -4.424177 -15.167075 1.181165 0.000000 0.000000 0.000000 13.474460 -1.431391 -2.182872 61.407503 -0.669011 -6.230279 8.325112 23.743398 2.297495 0.000000 0.000000 0.000000 
